#N canvas 93 85 1920 997 12;
#X obj 19 21 tgl 15 0 empty empty empty 17 7 0 10 #fcfcfc #000000 #000000
0 1;
#X msg 19 46 \; pd dsp \$1;
#X obj 718 39 hradio 15 1 0 32 empty empty empty 0 -8 0 10 #fcfcfc
#000000 #000000 0;
#X floatatom 567 17 5 0 0 0 - - - 0;
#X obj 508 16 tgl 15 0 empty empty empty 17 7 0 10 #fcfcfc #000000
#000000 0 1;
#X obj 507 81 f;
#X obj 547 82 + 1;
#X obj 950 619 vline~;
#X obj 859 657 *~;
#X obj 507 115 mod 32;
#X obj 852 604 osc~, f 5;
#X floatatom 857 564 5 0 0 0 - - - 0;
#X obj 855 523 + 230;
#X obj 865 276 80;
#X obj 905 278 120;
#X obj 969 277 165;
#X obj 1042 278 235;
#X obj 765 276 0;
#X obj 816 276 35;
#X obj 706 141 select 0 2 3 4 5 7 9 11 12 13 14 15 16 18 19 20 21 23
25 27 28 29 30;
#X obj 507 50 metro 175;
#X obj 851 721 dac~;
#X msg 940 581 0.25 50 \, 0 150 75;
#X obj 356 18 r oscplayseq;
#X connect 0 0 1 0;
#X connect 2 0 19 0;
#X connect 3 0 20 1;
#X connect 4 0 20 0;
#X connect 5 0 6 0;
#X connect 5 0 9 0;
#X connect 6 0 5 1;
#X connect 7 0 8 1;
#X connect 8 0 21 0;
#X connect 8 0 21 1;
#X connect 9 0 2 0;
#X connect 10 0 8 0;
#X connect 11 0 10 0;
#X connect 11 0 22 0;
#X connect 12 0 11 0;
#X connect 13 0 12 0;
#X connect 14 0 12 0;
#X connect 15 0 12 0;
#X connect 16 0 12 0;
#X connect 17 0 12 0;
#X connect 18 0 12 0;
#X connect 19 0 13 0;
#X connect 19 1 13 0;
#X connect 19 2 13 0;
#X connect 19 3 14 0;
#X connect 19 4 15 0;
#X connect 19 5 16 0;
#X connect 19 6 14 0;
#X connect 19 7 14 0;
#X connect 19 8 15 0;
#X connect 19 9 14 0;
#X connect 19 10 13 0;
#X connect 19 11 17 0;
#X connect 19 12 18 0;
#X connect 19 13 18 0;
#X connect 19 14 18 0;
#X connect 19 15 13 0;
#X connect 19 16 14 0;
#X connect 19 17 13 0;
#X connect 19 18 18 0;
#X connect 19 19 14 0;
#X connect 19 20 13 0;
#X connect 19 21 18 0;
#X connect 19 22 17 0;
#X connect 20 0 5 0;
#X connect 22 0 7 0;
#X connect 23 0 20 0;
