#N canvas 492 141 629 446 12;
#X obj 108 236 osc~;
#X obj 109 350 *~;
#X obj 109 416 dac~;
#X floatatom 135 320 5 0 0 0 - - -;
#X text 178 321 debug;
#X msg 17 31 \; pd dsp 1 \; start bang;
#X text 11 9 Click to start;
#X text 125 9 Click to stop;
#X msg 127 31 \; pd dsp 0 \; start 0;
#N canvas 198 572 450 300 envelopeGenerator 0;
#X obj 36 216 snapshot~;
#X floatatom 36 242 5 0 0 0 - - -;
#X obj 52 154 r start;
#X text 79 243 debug;
#X obj 36 114 vline~;
#X obj 52 179 metro 1;
#X obj 16 79 inlet;
#X obj 16 268 outlet;
#X text 14 16 envelope generator args: vline message returns: control
signal, f 23;
#X connect 0 0 1 0;
#X connect 0 0 7 0;
#X connect 2 0 5 0;
#X connect 4 0 0 0;
#X connect 5 0 0 0;
#X connect 6 0 4 0;
#X restore 127 296 pd envelopeGenerator;
#X obj 325 102 bng 15 250 50 0 empty empty empty 17 7 0 10 -262144
-1 -1;
#X text 252 23 This is the sound played when you collect an item. This
sound is inspired by the sound played when a player collects a banana
in super monkey ball., f 50;
#X text 304 273 osc~ volume envelope;
#X text 342 100 play sound;
#X floatatom 68 203 5 0 0 0 - - -;
#X text 25 203 debug;
#N canvas 1005 514 450 300 delayEffect 0;
#X text 123 21 delay unit source: https://guitarextended.wordpress.com/2011/12/12/creating-a-simple-effect-with-pd/
;
#X obj 42 202 outlet~;
#X obj 46 26 inlet~;
#X obj 70 76 delwrite~ delayUnitDelayLine 1000;
#X obj 71 153 delread~ delayUnitDelayLine 100;
#X obj 147 116 *~ 0.45;
#X connect 2 0 3 0;
#X connect 4 0 1 0;
#X connect 4 0 5 0;
#X connect 5 0 3 0;
#X restore 180 381 pd delayEffect;
#N canvas 998 61 450 410 pitchSequence 0;
#X floatatom 44 284 5 0 0 0 - - -;
#X obj 44 150 f;
#X obj 87 150 + 1;
#X obj 44 96 bng 15 250 50 0 empty empty empty 17 7 0 10 -262144 -1
-1;
#X msg 44 257 600;
#X msg 126 257 1800;
#X obj 24 314 outlet;
#X text 164 257 sequence of pitches;
#X obj 18 65 inlet;
#X msg 85 257 900;
#X obj 44 173 mod 3;
#X obj 44 231 select 0 1 2;
#X text 87 173 prevents the number from going out of bounds;
#X floatatom 44 196 5 0 0 0 - - -;
#X obj 44 127 metro 100;
#X connect 0 0 6 0;
#X connect 1 0 2 0;
#X connect 1 0 10 0;
#X connect 2 0 1 1;
#X connect 3 0 14 0;
#X connect 4 0 0 0;
#X connect 5 0 0 0;
#X connect 8 0 3 0;
#X connect 9 0 0 0;
#X connect 10 0 13 0;
#X connect 11 0 4 0;
#X connect 11 1 9 0;
#X connect 11 2 5 0;
#X connect 13 0 11 0;
#X connect 14 0 1 0;
#X restore 108 175 pd pitchSequence;
#X msg 127 272 0 1 \, 1 1 \, 0 100 500;
#X connect 0 0 1 0;
#X connect 1 0 2 0;
#X connect 1 0 2 1;
#X connect 1 0 16 0;
#X connect 9 0 3 0;
#X connect 9 0 1 1;
#X connect 10 0 18 0;
#X connect 10 0 17 0;
#X connect 16 0 2 0;
#X connect 16 0 2 1;
#X connect 17 0 14 0;
#X connect 17 0 0 0;
#X connect 18 0 9 0;
