#N canvas 351 101 635 842 12;
#X obj 110 438 osc~;
#X obj 111 592 *~;
#X obj 110 720 dac~;
#X floatatom 414 371 5 0 0 0 - - -;
#X obj 426 563 *~;
#X floatatom 471 520 5 0 0 0 - - -;
#X obj 416 619 dac~;
#X obj 416 434 noise~;
#X floatatom 159 572 5 0 0 0 - - -;
#X text 202 573 debug;
#X msg 17 31 \; pd dsp 1 \; start bang;
#X text 11 9 Click to start;
#X text 125 9 Click to stop;
#X msg 127 31 \; pd dsp 0 \; start 0;
#N canvas 198 572 450 300 envelopeGenerator 0;
#X obj 36 216 snapshot~;
#X floatatom 36 242 5 0 0 0 - - -;
#X obj 52 154 r start;
#X text 79 243 debug;
#X obj 36 114 vline~;
#X obj 52 179 metro 1;
#X obj 16 79 inlet;
#X obj 16 268 outlet;
#X text 14 16 envelope generator args: vline message returns: control
signal, f 23;
#X connect 0 0 1 0;
#X connect 0 0 7 0;
#X connect 2 0 5 0;
#X connect 4 0 0 0;
#X connect 5 0 0 0;
#X connect 6 0 4 0;
#X restore 129 536 pd envelopeGenerator;
#X floatatom 140 404 5 0 0 0 - - -;
#X text 183 405 debug;
#N canvas 198 572 450 300 envelopeGenerator 0;
#X obj 36 216 snapshot~;
#X floatatom 36 242 5 0 0 0 - - -;
#X obj 52 154 r start;
#X text 79 243 debug;
#X obj 36 114 vline~;
#X obj 52 179 metro 1;
#X obj 16 79 inlet;
#X obj 16 268 outlet;
#X text 14 16 envelope generator args: vline message returns: signal
, f 23;
#X connect 0 0 1 0;
#X connect 0 0 7 0;
#X connect 2 0 5 0;
#X connect 4 0 0 0;
#X connect 5 0 0 0;
#X connect 6 0 4 0;
#X restore 110 368 pd envelopeGenerator;
#X text 225 336 pitch envelope;
#X obj 390 270 bng 15 250 50 0 empty empty empty 17 7 0 10 -262144
-1 -1;
#X text 252 23 This is the sound played when you collect an item. This
sound is inspired by the sound played when a player collects a banana
in super monkey ball., f 50;
#N canvas 644 249 450 300 shortDelayEffect 0;
#X text 123 21 delay unit source: https://guitarextended.wordpress.com/2011/12/12/creating-a-simple-effect-with-pd/
;
#X obj 42 202 outlet~;
#X obj 46 26 inlet~;
#X obj 70 76 delwrite~ shortDelayUnitDelayLine 100;
#X obj 71 153 delread~ shortDelayUnitDelayLine 60;
#X obj 147 116 *~ 0.3;
#X connect 2 0 3 0;
#X connect 4 0 1 0;
#X connect 4 0 5 0;
#X connect 5 0 3 0;
#X restore 174 651 pd shortDelayEffect;
#X text 208 504 osc~ volume envelope;
#X msg 129 504 1 0 \, 0 250;
#X msg 110 336 620 0 \, 1800 250;
#X text 392 252 play sound;
#N canvas 997 166 450 300 sequence 1;
#X floatatom 83 254 5 0 0 0 - - -;
#X obj 80 82 f;
#X obj 123 82 + 1;
#X msg 95 201 600;
#X msg 43 201 400;
#X msg 140 200 200;
#X obj 80 158 select 0 1 2 3;
#X obj 80 117 mod 4;
#X msg 180 200 100;
#X obj 80 47 metro 200;
#X obj 80 13 bng 15 250 50 0 empty empty empty 17 7 0 10 -262144 -1
-1;
#X connect 1 0 2 0;
#X connect 1 0 7 0;
#X connect 2 0 1 1;
#X connect 3 0 0 0;
#X connect 4 0 0 0;
#X connect 5 0 0 0;
#X connect 6 0 4 0;
#X connect 6 1 3 0;
#X connect 6 2 5 0;
#X connect 6 3 8 0;
#X connect 7 0 6 0;
#X connect 8 0 0 0;
#X connect 9 0 1 0;
#X connect 10 0 9 0;
#X restore 393 737 pd sequence;
#X connect 0 0 1 0;
#X connect 1 0 21 0;
#X connect 1 0 2 0;
#X connect 1 0 2 1;
#X connect 3 0 7 0;
#X connect 4 0 6 0;
#X connect 4 0 6 1;
#X connect 5 0 4 1;
#X connect 7 0 4 0;
#X connect 14 0 8 0;
#X connect 14 0 1 1;
#X connect 17 0 15 0;
#X connect 17 0 0 0;
#X connect 19 0 23 0;
#X connect 19 0 24 0;
#X connect 21 0 2 0;
#X connect 21 0 2 1;
#X connect 23 0 14 0;
#X connect 24 0 17 0;
