#N canvas 782 139 826 842 12;
#X obj 110 438 osc~;
#X obj 111 592 *~;
#X obj 111 648 dac~;
#X floatatom 576 136 5 0 0 0 - - -;
#X obj 588 328 *~;
#X floatatom 633 285 5 0 0 0 - - -;
#X obj 578 384 dac~;
#X floatatom 704 134 5 0 0 0 - - -;
#X obj 716 326 *~;
#X floatatom 761 283 5 0 0 0 - - -;
#X obj 706 382 dac~;
#X obj 578 199 phasor~;
#X obj 706 197 noise~;
#X floatatom 159 572 5 0 0 0 - - -;
#X text 202 573 debug;
#X msg 17 31 \; pd dsp 1 \; start bang;
#X text 11 9 Click to start;
#X text 125 9 Click to stop;
#X msg 127 31 \; pd dsp 0 \; start 0;
#X text 252 23 This is the sound played when you collect an item. This
sound is inspired by the sound played when a player collects a banana
in super monkey ball. DEVELOPER NOTES: - decrease in volume over time
(quickly) - decrease in pitch over time;
#N canvas 198 572 450 300 envelopeGenerator 0;
#X obj 36 216 snapshot~;
#X floatatom 36 242 5 0 0 0 - - -;
#X obj 52 154 r start;
#X text 79 243 debug;
#X obj 36 114 vline~;
#X obj 52 179 metro 1;
#X obj 16 79 inlet;
#X obj 16 268 outlet;
#X text 14 16 envelope generator args: vline message returns: signal
, f 23;
#X connect 0 0 1 0;
#X connect 0 0 7 0;
#X connect 2 0 5 0;
#X connect 4 0 0 0;
#X connect 5 0 0 0;
#X connect 6 0 4 0;
#X restore 129 536 pd envelopeGenerator;
#X floatatom 140 389 5 0 0 0 - - -;
#X text 183 390 debug;
#N canvas 198 572 450 300 envelopeGenerator 0;
#X obj 36 216 snapshot~;
#X floatatom 36 242 5 0 0 0 - - -;
#X obj 52 154 r start;
#X text 79 243 debug;
#X obj 36 114 vline~;
#X obj 52 179 metro 1;
#X obj 16 79 inlet;
#X obj 16 268 outlet;
#X text 14 16 envelope generator args: vline message returns: signal
, f 23;
#X connect 0 0 1 0;
#X connect 0 0 7 0;
#X connect 2 0 5 0;
#X connect 4 0 0 0;
#X connect 5 0 0 0;
#X connect 6 0 4 0;
#X restore 110 353 pd envelopeGenerator;
#X text 211 320 pitch envelope;
#X text 217 504 volume envelope;
#X obj 377 264 bng 15 250 50 0 empty empty empty 17 7 0 10 -262144
-1 -1;
#X msg 110 321 162 0 \, 0 1000;
#X msg 129 504 1 0 \, 0 1000;
#X connect 0 0 1 0;
#X connect 1 0 2 0;
#X connect 1 0 2 1;
#X connect 3 0 11 0;
#X connect 4 0 6 0;
#X connect 4 0 6 1;
#X connect 5 0 4 1;
#X connect 7 0 12 0;
#X connect 8 0 10 0;
#X connect 8 0 10 1;
#X connect 9 0 8 1;
#X connect 11 0 4 0;
#X connect 12 0 8 0;
#X connect 20 0 13 0;
#X connect 20 0 1 1;
#X connect 23 0 21 0;
#X connect 23 0 0 0;
#X connect 26 0 27 0;
#X connect 26 0 28 0;
#X connect 27 0 23 0;
#X connect 28 0 20 0;
