#N canvas 795 157 826 842 12;
#X floatatom 97 299 5 0 0 0 - - -;
#X obj 99 362 osc~;
#X obj 109 491 *~;
#X floatatom 127 413 5 0 0 0 - - -;
#X obj 99 547 dac~;
#X floatatom 576 136 5 0 0 0 - - -;
#X obj 588 328 *~;
#X floatatom 633 285 5 0 0 0 - - -;
#X obj 578 384 dac~;
#X floatatom 704 134 5 0 0 0 - - -;
#X obj 716 326 *~;
#X floatatom 761 283 5 0 0 0 - - -;
#X obj 706 382 dac~;
#X obj 578 199 phasor~;
#X obj 706 197 noise~;
#X obj 226 368 snapshot~;
#X floatatom 226 394 5 0 0 0 - - -;
#X obj 242 306 r start;
#X msg 226 227 1 0 \, 0 1000;
#X text 223 200 volume envelope generator;
#X text 269 395 debug;
#X obj 226 266 vline~;
#X msg 17 31 \; pd dsp 1 \; start bang;
#X text 11 9 Click to start;
#X text 125 9 Click to stop;
#X msg 127 31 \; pd dsp 0 \; start 0;
#X obj 242 331 metro 1;
#X text 252 23 This is the sound played when you collect an item. This
sound is inspired by the sound played when a player collects a banana
in super monkey ball. DEVELOPER NOTES: - decrease in volume over time
(quickly) - decrease in pitch over time;
#X connect 0 0 1 0;
#X connect 1 0 2 0;
#X connect 2 0 4 0;
#X connect 2 0 4 1;
#X connect 3 0 2 1;
#X connect 5 0 13 0;
#X connect 6 0 8 0;
#X connect 6 0 8 1;
#X connect 7 0 6 1;
#X connect 9 0 14 0;
#X connect 10 0 12 0;
#X connect 10 0 12 1;
#X connect 11 0 10 1;
#X connect 13 0 6 0;
#X connect 14 0 10 0;
#X connect 15 0 16 0;
#X connect 15 0 2 1;
#X connect 17 0 26 0;
#X connect 18 0 21 0;
#X connect 21 0 15 0;
#X connect 26 0 15 0;
