#N canvas 1098 48 798 990 12;
#X obj 16 12 tgl 15 0 empty empty empty 17 7 0 10 -262144 -1 -1 1 1
;
#X msg 16 37 \; pd dsp \$1;
#X obj 335 822 osc~;
#X obj 335 876 *~;
#X obj 326 921 dac~;
#X floatatom 629 781 5 0 1 0 - - -;
#X obj 686 693 vsl 15 128 0 1 0 0 empty empty empty 0 -9 0 10 -262144
-1 -1 6100 1;
#X floatatom 304 374 5 0 0 0 - - -;
#X obj 304 320 metro;
#X obj 304 404 select 0 1;
#X obj 304 55 tgl 15 0 empty empty empty 17 7 0 10 -262144 -1 -1 0
1;
#X obj 304 349 tgl 15 0 empty empty empty 17 7 0 10 -262144 -1 -1 0
1;
#X floatatom 364 186 5 0 0 0 - - -;
#X obj 364 152 line;
#X obj 364 56 bng 15 250 50 0 empty empty empty 17 7 0 10 -262144 -1
-1;
#X obj 461 332 vsl 15 128 0 100 0 0 empty empty empty 0 -9 0 10 -262144
-1 -1 3600 1;
#X obj 130 174 vsl 15 128 0 500 0 0 empty empty empty 0 -9 0 10 -262144
-1 -1 9500 1;
#X floatatom 170 267 5 0 0 0 - - -;
#X floatatom 408 411 5 0 0 0 - - -;
#X obj 356 456 +;
#X obj 301 456 -;
#X floatatom 301 505 5 0 0 0 - - -;
#X obj 375 429 bng 15 250 50 0 empty empty empty 17 7 0 10 -262144
-1 -1;
#X floatatom 356 504 5 0 0 0 - - -;
#X obj 224 237 line;
#X obj 224 341 *;
#X floatatom 226 277 5 0 0 0 - - -;
#X obj 222 318 bng 15 250 50 0 empty empty empty 17 7 0 10 -262144
-1 -1;
#X obj 546 160 vsl 15 128 0 100 0 0 empty empty empty 0 -9 0 10 -262144
-1 -1 2100 1;
#X floatatom 493 239 5 0 0 0 - - -;
#X obj 383 227 bng 15 250 50 0 empty empty empty 17 7 0 10 -262144
-1 -1;
#X obj 351 265 *;
#X floatatom 248 382 5 0 0 0 - - -;
#X floatatom 347 291 5 0 0 0 - - -;
#X obj 365 646 osc~;
#X floatatom 368 576 5 0 0 0 - - -;
#X obj 335 710 +~;
#X obj 365 679 *~ 100;
#X obj 364 622 +~;
#X obj 447 498 vsl 15 128 0 100 0 0 empty empty empty 0 -9 0 10 -262144
-1 -1 3400 1;
#X floatatom 494 692 5 0 0 0 - - -;
#X obj 494 658 line;
#X obj 558 583 bng 15 250 50 0 empty empty empty 17 7 0 10 -262144
-1 -1;
#X obj 535 728 *;
#X floatatom 531 754 5 0 0 0 - - -;
#X msg 364 121 1 \, 5 2000;
#X msg 493 628 0 \, 1 25;
#X floatatom 560 693 5 0 0 0 - - -;
#X obj 560 659 line;
#X obj 538 800 *;
#X obj 599 774 bng 15 250 50 0 empty empty empty 17 7 0 10 -262144
-1 -1;
#X obj 539 710 bng 15 250 50 0 empty empty empty 17 7 0 10 -262144
-1 -1;
#X msg 559 627 1 \, 0 2000;
#X floatatom 447 788 5 0 0 0 - - -;
#X obj 447 760 > 0.05;
#X obj 456 821 *;
#X obj 207 657 osc~;
#X floatatom 206 631 5 0 0 0 - - -;
#X obj 207 690 *~;
#X floatatom 247 663 5 0 45 0 - - -;
#X obj 255 760 *~;
#X obj 274 792 *~;
#X floatatom 178 775 5 0 1 0 - - -;
#X msg 223 207 1 \, 0.1 2000;
#X obj 125 708 vsl 15 128 0 1 0 0 empty empty empty 0 -9 0 10 -262144
-1 -1 8400 1;
#X obj 141 534 vsl 15 128 0 700 0 0 empty empty empty 0 -9 0 10 -262144
-1 -1 5700 1;
#X obj 300 593 vsl 15 128 0 45 0 0 empty empty empty 0 -9 0 10 -262144
-1 -1 500 1;
#X connect 0 0 1 0;
#X connect 2 0 3 0;
#X connect 3 0 4 0;
#X connect 3 0 4 1;
#X connect 5 0 6 0;
#X connect 5 0 50 0;
#X connect 5 0 49 1;
#X connect 6 0 5 0;
#X connect 7 0 9 0;
#X connect 8 0 11 0;
#X connect 9 0 21 0;
#X connect 9 1 23 0;
#X connect 10 0 8 0;
#X connect 11 0 7 0;
#X connect 12 0 31 0;
#X connect 13 0 12 0;
#X connect 14 0 45 0;
#X connect 14 0 63 0;
#X connect 14 0 42 0;
#X connect 15 0 18 0;
#X connect 16 0 17 0;
#X connect 17 0 16 0;
#X connect 17 0 25 0;
#X connect 18 0 15 0;
#X connect 18 0 19 1;
#X connect 18 0 20 1;
#X connect 18 0 22 0;
#X connect 19 0 23 0;
#X connect 20 0 21 0;
#X connect 21 0 36 0;
#X connect 22 0 20 0;
#X connect 22 0 19 0;
#X connect 23 0 36 0;
#X connect 24 0 26 0;
#X connect 25 0 32 0;
#X connect 26 0 25 1;
#X connect 26 0 27 0;
#X connect 27 0 25 0;
#X connect 28 0 29 0;
#X connect 29 0 28 0;
#X connect 29 0 30 0;
#X connect 29 0 31 1;
#X connect 30 0 31 0;
#X connect 31 0 33 0;
#X connect 32 0 20 0;
#X connect 32 0 19 0;
#X connect 33 0 8 1;
#X connect 34 0 37 0;
#X connect 35 0 38 0;
#X connect 35 0 39 0;
#X connect 36 0 60 0;
#X connect 36 0 2 0;
#X connect 37 0 36 1;
#X connect 38 0 34 0;
#X connect 39 0 35 0;
#X connect 40 0 43 0;
#X connect 41 0 40 0;
#X connect 42 0 46 0;
#X connect 42 0 52 0;
#X connect 43 0 44 0;
#X connect 44 0 49 0;
#X connect 44 0 54 0;
#X connect 45 0 13 0;
#X connect 46 0 41 0;
#X connect 47 0 51 0;
#X connect 47 0 43 1;
#X connect 48 0 47 0;
#X connect 49 0 55 1;
#X connect 50 0 49 0;
#X connect 51 0 43 0;
#X connect 52 0 48 0;
#X connect 53 0 55 0;
#X connect 54 0 53 0;
#X connect 55 0 3 1;
#X connect 56 0 58 0;
#X connect 57 0 56 0;
#X connect 57 0 65 0;
#X connect 58 0 60 1;
#X connect 59 0 58 1;
#X connect 59 0 66 0;
#X connect 60 0 61 0;
#X connect 61 0 2 0;
#X connect 62 0 61 1;
#X connect 62 0 64 0;
#X connect 63 0 24 0;
#X connect 64 0 62 0;
#X connect 65 0 57 0;
#X connect 66 0 59 0;
