#N canvas 993 -1092 1005 570 10;
#X text 177 277 creation arguments are OSC address;
#X text 179 238 set message to change OSC address;
#X text 164 48 1 Set IP Address : network address;
#X text 164 68 2 Set Ports (sending and listening);
#X text 164 87 3 Set OSC Addresses (routing osc data;
#X text 155 26 Key Settings;
#X floatatom 43 194 5 0 0 0 - - -;
#N canvas 61 -1095 623 462 oscReceive 0;
#X obj 55 184 netreceive -u -b;
#X msg 78 143 listen 0;
#X text 152 143 stop listening;
#X text 64 58 packets from network;
#X text 173 177 UDP packets \, binary output, f 13;
#X obj 45 314 print;
#X obj 45 272 oscparse;
#X text 150 114 listen on port 8000;
#X obj 177 269 oscparse;
#X obj 177 293 list trim;
#X floatatom 140 380 5 0 0 0 - - -;
#X text 241 267 Parse the OSC message;
#X obj 177 319 route unity;
#X obj 139 357 route trigger;
#X obj 140 407 s osctrig;
#X msg 66 115 listen 8000;
#X obj 66 84 loadbang;
#X floatatom 244 382 5 0 0 0 - - -;
#X obj 243 359 route tempo;
#X obj 244 409 s osctempo;
#X floatatom 339 382 5 0 0 0 - - -;
#X obj 338 359 route playseq;
#X obj 339 409 s oscplayseq;
#X floatatom 437 382 5 0 0 0 - - -;
#X obj 436 359 route colwall;
#X obj 437 409 s oscwall;
#X obj 531 355 route death;
#X floatatom 532 380 5 0 0 0 - - -;
#X obj 532 407 s oscdeath;
#X connect 0 0 6 0;
#X connect 0 0 8 0;
#X connect 1 0 0 0;
#X connect 6 0 5 0;
#X connect 8 0 9 0;
#X connect 9 0 12 0;
#X connect 10 0 14 0;
#X connect 12 0 13 0;
#X connect 12 0 18 0;
#X connect 12 0 21 0;
#X connect 12 0 24 0;
#X connect 12 0 26 0;
#X connect 13 0 10 0;
#X connect 15 0 0 0;
#X connect 16 0 15 0;
#X connect 17 0 19 0;
#X connect 18 0 17 0;
#X connect 20 0 22 0;
#X connect 21 0 20 0;
#X connect 23 0 25 0;
#X connect 24 0 23 0;
#X connect 26 0 27 0;
#X connect 27 0 28 0;
#X restore 47 142 pd oscReceive;
#X obj 47 36 tgl 15 0 empty empty empty 17 7 0 10 -262144 -1 -1 0 1
;
#X msg 47 61 \; pd dsp \$1;
#X obj 44 278 oscformat PD message;
#X msg 76 239 set PD message;
#N canvas 727 97 450 300 oscSend 0;
#X msg 158 207 disconnect;
#X obj 61 253 netsend -u -b;
#X obj 59 55 list prepend send;
#X obj 59 80 list trim;
#X msg 150 175 connect 127.0.0.1 8001;
#X obj 59 29 r oscOut;
#X text 301 163 send to port 8001;
#X msg 147 148 connect localhost 8001;
#X obj 147 108 loadbang;
#X connect 0 0 1 0;
#X connect 2 0 3 0;
#X connect 3 0 1 0;
#X connect 4 0 1 0;
#X connect 5 0 2 0;
#X connect 7 0 1 0;
#X connect 8 0 7 0;
#X restore 47 118 pd oscSend;
#X obj 44 313 s oscOut;
#X obj 1070 974 *~;
#X obj 1061 1019 dac~;
#X obj 1077 643 mtof;
#X obj 1076 602 + 0;
#X obj 1059 354 metro 4000;
#X obj 1061 321 tgl 15 0 empty empty empty 17 7 0 10 -262144 -1 -1
0 1;
#X floatatom 1117 325 5 0 0 0 - - -;
#X obj 1040 388 f;
#X obj 1083 390 + 1;
#X obj 1061 455 select 0 1 2 3;
#X obj 1239 847 vline~;
#X floatatom 1223 540 5 0 0 0 - - -;
#X obj 1223 487 loadbang;
#X obj 1060 423 mod 4;
#X msg 1034 508 0;
#X obj 800 262 bng 15 250 50 0 empty empty empty 17 7 0 10 -262144
-1 -1;
#X obj 1026 843 phasor~;
#X floatatom 1024 784 5 0 0 0 - - -;
#X obj 1101 842 phasor~;
#X obj 1100 811 * -1;
#X obj 1069 901 +~;
#X obj 1067 934 -~ 1;
#X msg 1102 780 0;
#X msg 1150 780 0.5;
#X obj 1123 750 bng 15 250 50 0 empty empty empty 17 7 0 10 -262144
-1 -1;
#X obj 1122 725 loadbang;
#X obj 1177 274 r osctempo;
#X obj 1102 248 loadbang;
#X msg 1118 292 500;
#X obj 794 224 r oscwall;
#X msg 1073 508 -5;
#X msg 1114 508 -3;
#X msg 1156 508 -1;
#X msg 1239 795 0.5 25 \, 0 100 75;
#X msg 1223 514 48;
#X text 715 197 Trigger noise burst when running into a wall;
#X text 994 197 Sequence playback: tempo increases as more cubes are
collected.;
#N canvas -313 -1300 1105 997 death_sound 0;
#X obj 334 927 osc~;
#X obj 334 981 *~;
#X obj 325 1026 dac~;
#X floatatom 628 886 5 0 1 0 - - -;
#X obj 685 798 vsl 15 128 0 1 0 0 empty empty empty 0 -9 0 10 -204800
-1 -1 6350 1;
#X floatatom 303 479 5 0 0 0 - - -;
#X obj 303 425 metro;
#X obj 303 509 select 0 1;
#X obj 303 160 tgl 15 0 empty empty empty 17 7 0 10 -262144 -1 -1 0
1;
#X obj 303 454 tgl 15 0 empty empty empty 17 7 0 10 -262144 -1 -1 0
1;
#X floatatom 363 291 5 0 0 0 - - -;
#X obj 363 257 line;
#X obj 415 38 bng 15 250 50 0 empty empty empty 17 7 0 10 -204800 -1
-1;
#X obj 460 437 vsl 15 128 0 100 0 0 empty empty empty 0 -9 0 10 -204800
-1 -1 9525 1;
#X obj 129 279 vsl 15 128 0 500 0 0 empty empty empty 0 -9 0 10 -204800
-1 -1 6350 1;
#X floatatom 169 372 5 0 0 0 - - -;
#X floatatom 407 516 5 0 0 0 - - -;
#X obj 355 561 +;
#X floatatom 300 610 5 0 0 0 - - -;
#X obj 374 534 bng 15 250 50 0 empty empty empty 17 7 0 10 -262144
-1 -1;
#X floatatom 355 609 5 0 0 0 - - -;
#X obj 225 355 line;
#X obj 223 446 *;
#X floatatom 225 382 5 0 0 0 - - -;
#X obj 221 423 bng 15 250 50 0 empty empty empty 17 7 0 10 -262144
-1 -1;
#X obj 545 265 vsl 15 128 0 200 0 0 empty empty empty 0 -9 0 10 -204800
-1 -1 4445 1;
#X floatatom 492 344 5 0 0 0 - - -;
#X obj 382 332 bng 15 250 50 0 empty empty empty 17 7 0 10 -262144
-1 -1;
#X obj 350 370 *;
#X floatatom 247 487 5 0 0 0 - - -;
#X floatatom 346 396 5 0 0 0 - - -;
#X obj 364 751 osc~;
#X floatatom 367 681 5 0 0 0 - - -;
#X obj 334 815 +~;
#X obj 364 784 *~ 100;
#X obj 363 727 +~;
#X obj 446 603 vsl 15 128 0 100 0 0 empty empty empty 0 -9 0 10 -204800
-1 -1 4445 1;
#X floatatom 491 751 5 0 0 0 - - -;
#X obj 491 717 line;
#X obj 555 642 bng 15 250 50 0 empty empty empty 17 7 0 10 -262144
-1 -1;
#X obj 529 794 *;
#X floatatom 530 859 5 0 0 0 - - -;
#X msg 491 685 0 \, 1 25;
#X floatatom 557 752 5 0 0 0 - - -;
#X obj 557 718 line;
#X obj 537 905 *;
#X obj 598 879 bng 15 250 50 0 empty empty empty 17 7 0 10 -262144
-1 -1;
#X obj 533 776 bng 15 250 50 0 empty empty empty 17 7 0 10 -262144
-1 -1;
#X msg 557 685 1 \, 0 2000;
#X floatatom 446 893 5 0 0 0 - - -;
#X obj 446 865 > 0.05;
#X obj 455 926 *;
#X obj 206 762 osc~;
#X floatatom 205 736 5 0 0 0 - - -;
#X obj 206 795 *~;
#X floatatom 246 768 5 0 45 0 - - -;
#X obj 254 865 *~;
#X obj 273 897 *~;
#X floatatom 177 880 5 0 1 0 - - -;
#X msg 225 329 1 \, 0.1 2000;
#X obj 124 813 vsl 15 128 0 1 0 0 empty empty empty 0 -9 0 10 -204800
-1 -1 3175 1;
#X obj 140 639 vsl 15 128 0 700 0 0 empty empty empty 0 -9 0 10 -204800
-1 -1 8164 1;
#X obj 299 698 vsl 15 128 0 45 0 0 empty empty empty 0 -9 0 10 -204800
-1 -1 1129 1;
#X msg 303 105 1 \, 0 2000;
#X obj 303 132 line;
#X obj 17 15 loadbang;
#X obj 17 74 s reset_death;
#X obj 169 281 r reset_death;
#X obj 17 46 bng 15 250 50 0 empty empty empty 17 7 0 10 -204800 -1
-1;
#X obj 492 239 r reset_death;
#X obj 205 684 r reset_death;
#X obj 177 830 r reset_death;
#X obj 628 772 r reset_death;
#X obj 407 412 r reset_death;
#X msg 169 338 250;
#X msg 407 468 75;
#X msg 246 712 4;
#X msg 177 856 0.25;
#X obj 384 579 r reset_death;
#X msg 367 648 35;
#X msg 205 711 450;
#X msg 363 226 1 \, 20 2000;
#X msg 492 296 70;
#X obj 415 12 r oscdeath;
#X text 40 46 This bang resets all values to default.;
#X text 438 39 This bang plays the death sound once.;
#X text 569 265 This slider changes the length of time between switching
pitches.;
#X text -2 259 This slider changes the overall pitch of the sound.
;
#X text 484 441 This slider changes the pitch difference bewtween the
two tones played.;
#X text 474 601 This slider changes the frequency of the freequency
modulation.;
#X text 1 949 This slider changes the impact of the frequency modulation.
;
#X text -2 622 This slider changes the frequency of the amplitude modulation.
;
#X text 263 828 This slider changes the amplitude of the amplitude
modulation?;
#X text 680 939 This slider changes the overall volume.;
#X msg 628 842 0.5;
#X connect 0 0 1 0;
#X connect 1 0 2 0;
#X connect 1 0 2 1;
#X connect 3 0 4 0;
#X connect 3 0 46 0;
#X connect 3 0 45 1;
#X connect 4 0 3 0;
#X connect 5 0 7 0;
#X connect 6 0 9 0;
#X connect 7 0 18 0;
#X connect 7 1 20 0;
#X connect 8 0 6 0;
#X connect 9 0 5 0;
#X connect 10 0 28 0;
#X connect 11 0 10 0;
#X connect 12 0 59 0;
#X connect 12 0 39 0;
#X connect 12 0 63 0;
#X connect 12 0 81 0;
#X connect 13 0 16 0;
#X connect 14 0 15 0;
#X connect 15 0 14 0;
#X connect 15 0 22 0;
#X connect 16 0 13 0;
#X connect 16 0 17 1;
#X connect 16 0 19 0;
#X connect 17 0 20 0;
#X connect 18 0 33 0;
#X connect 19 0 17 0;
#X connect 20 0 33 0;
#X connect 21 0 23 0;
#X connect 22 0 29 0;
#X connect 23 0 22 1;
#X connect 23 0 24 0;
#X connect 24 0 22 0;
#X connect 25 0 26 0;
#X connect 26 0 25 0;
#X connect 26 0 27 0;
#X connect 26 0 28 1;
#X connect 27 0 28 0;
#X connect 28 0 30 0;
#X connect 29 0 17 0;
#X connect 29 0 18 0;
#X connect 30 0 6 1;
#X connect 31 0 34 0;
#X connect 32 0 35 0;
#X connect 32 0 36 0;
#X connect 33 0 56 0;
#X connect 33 0 0 0;
#X connect 34 0 33 1;
#X connect 35 0 31 0;
#X connect 36 0 32 0;
#X connect 37 0 40 0;
#X connect 38 0 37 0;
#X connect 39 0 42 0;
#X connect 39 0 48 0;
#X connect 40 0 41 0;
#X connect 41 0 45 0;
#X connect 41 0 50 0;
#X connect 42 0 38 0;
#X connect 43 0 47 0;
#X connect 43 0 40 1;
#X connect 44 0 43 0;
#X connect 45 0 51 1;
#X connect 46 0 45 0;
#X connect 47 0 40 0;
#X connect 48 0 44 0;
#X connect 49 0 51 0;
#X connect 50 0 49 0;
#X connect 51 0 1 1;
#X connect 52 0 54 0;
#X connect 53 0 52 0;
#X connect 53 0 61 0;
#X connect 54 0 56 1;
#X connect 55 0 54 1;
#X connect 55 0 62 0;
#X connect 56 0 57 0;
#X connect 57 0 0 0;
#X connect 58 0 57 1;
#X connect 58 0 60 0;
#X connect 59 0 21 0;
#X connect 60 0 58 0;
#X connect 61 0 53 0;
#X connect 62 0 55 0;
#X connect 63 0 64 0;
#X connect 64 0 8 0;
#X connect 65 0 68 0;
#X connect 67 0 74 0;
#X connect 68 0 66 0;
#X connect 69 0 82 0;
#X connect 70 0 80 0;
#X connect 70 0 76 0;
#X connect 71 0 77 0;
#X connect 72 0 94 0;
#X connect 73 0 75 0;
#X connect 74 0 15 0;
#X connect 75 0 16 0;
#X connect 76 0 55 0;
#X connect 77 0 58 0;
#X connect 78 0 79 0;
#X connect 79 0 32 0;
#X connect 80 0 53 0;
#X connect 81 0 11 0;
#X connect 82 0 26 0;
#X connect 83 0 12 0;
#X connect 94 0 3 0;
#X restore 164 433 pd death_sound;
#N canvas 0 25 801 617 bounce 1;
#X obj 273 247 phasor~;
#X obj 273 280 expr~ $v1 > 0.5;
#X obj 210 536 dac~;
#X obj 55 188 vline~;
#X obj 212 468 *~;
#X obj 53 221 *~;
#X obj 55 127 f 250;
#X msg 55 158 0.5 \, 1 5 \, 0.5 60 5 \, 0 \$1 65;
#X msg 295 76 1 \, 0.5 5 \, 0 \$1 5;
#X obj 295 101 vline~;
#X obj 295 127 *~;
#X obj 295 152 *~ 80;
#X obj 295 178 +~ 29;
#X text 255 54 midi pitch from 109 down to 29;
#X obj 291 206 *~ 1;
#X obj 270 331 vcf~ 0.5;
#X text 321 351 for low-pass output;
#X obj 462 265 *~ 1.5;
#X text 519 266 use pitch envelope to control the filter;
#X obj 194 292 noise~;
#X obj 516 398 *~ 1.5;
#X obj 516 422 osc~;
#X obj 147 72 nbx 5 14 -1e+37 1e+37 0 1 empty empty decay 0 -8 0 10
-262144 -1 -1 700 256;
#X obj 436 147 nbx 5 14 -1e+37 1e+37 0 1 empty empty pitch_scale 0
-8 0 10 -262144 -1 -1 2 256;
#X obj 542 210 nbx 5 14 -1e+37 1e+37 0 1 empty empty filter_scale 0
-8 0 10 -262144 -1 -1 3 256;
#X obj 586 346 nbx 5 14 -1e+37 1e+37 0 1 empty empty sine_scale 0 -8
0 10 -262144 -1 -1 2 256;
#X obj 56 89 inlet;
#X text 516 514 sound level control;
#X obj 494 457 vsl 15 128 0.5 0.9 0 1 empty empty empty 0 -9 0 10 -262144
-1 -1 9800 1;
#X obj 210 500 *~;
#X obj 345 515 nbx 5 14 -1e+37 1e+37 0 0 empty empty empty 0 -8 0 10
-262144 -1 -1 0.694488 256;
#X connect 0 0 1 0;
#X connect 1 0 15 0;
#X connect 3 0 5 0;
#X connect 3 0 5 1;
#X connect 4 0 29 0;
#X connect 5 0 4 0;
#X connect 6 0 7 0;
#X connect 6 0 8 0;
#X connect 7 0 3 0;
#X connect 8 0 9 0;
#X connect 9 0 10 0;
#X connect 10 0 11 0;
#X connect 11 0 12 0;
#X connect 12 0 14 0;
#X connect 12 0 17 0;
#X connect 14 0 0 0;
#X connect 14 0 20 0;
#X connect 15 1 4 1;
#X connect 17 0 15 1;
#X connect 19 0 15 0;
#X connect 20 0 21 0;
#X connect 21 0 4 1;
#X connect 22 0 6 1;
#X connect 23 0 14 1;
#X connect 24 0 17 1;
#X connect 25 0 20 1;
#X connect 26 0 6 0;
#X connect 28 0 30 0;
#X connect 29 0 2 0;
#X connect 29 0 2 1;
#X connect 30 0 29 1;
#X restore 799 302 pd bounce;
#N canvas -383 -1279 1497 802 BGM 0;
#X obj 19 21 tgl 15 0 empty empty empty 17 7 0 10 -262144 -1 -1 0 1
;
#X msg 19 46 \; pd dsp \$1;
#X obj 718 39 hradio 15 1 0 32 empty empty empty 0 -8 0 10 -262144
-1 -1 20;
#X floatatom 567 17 5 0 0 0 - - -;
#X obj 508 16 tgl 15 0 empty empty empty 17 7 0 10 -262144 -1 -1 0
1;
#X obj 507 81 f;
#X obj 547 82 + 1;
#X obj 950 619 vline~;
#X obj 859 657 *~;
#X obj 507 115 mod 32;
#X obj 852 604 osc~, f 5;
#X floatatom 857 564 5 0 0 0 - - -;
#X obj 855 523 + 230;
#X obj 865 276 80;
#X obj 905 278 120;
#X obj 969 277 165;
#X obj 1042 278 235;
#X obj 765 276 0;
#X obj 816 276 35;
#X obj 706 141 select 0 2 3 4 5 7 9 11 12 13 14 15 16 18 19 20 21 23
25 27 28 29 30;
#X obj 507 50 metro 175;
#X obj 851 721 dac~;
#X msg 940 581 0.25 50 \, 0 150 75;
#X obj 356 18 r oscplayseq;
#X connect 0 0 1 0;
#X connect 2 0 19 0;
#X connect 3 0 20 1;
#X connect 4 0 20 0;
#X connect 5 0 6 0;
#X connect 5 0 9 0;
#X connect 6 0 5 1;
#X connect 7 0 8 1;
#X connect 8 0 21 0;
#X connect 8 0 21 1;
#X connect 9 0 2 0;
#X connect 10 0 8 0;
#X connect 11 0 10 0;
#X connect 11 0 22 0;
#X connect 12 0 11 0;
#X connect 13 0 12 0;
#X connect 14 0 12 0;
#X connect 15 0 12 0;
#X connect 16 0 12 0;
#X connect 17 0 12 0;
#X connect 18 0 12 0;
#X connect 19 0 13 0;
#X connect 19 1 13 0;
#X connect 19 2 13 0;
#X connect 19 3 14 0;
#X connect 19 4 15 0;
#X connect 19 5 16 0;
#X connect 19 6 14 0;
#X connect 19 7 14 0;
#X connect 19 8 15 0;
#X connect 19 9 14 0;
#X connect 19 10 13 0;
#X connect 19 11 17 0;
#X connect 19 12 18 0;
#X connect 19 13 18 0;
#X connect 19 14 18 0;
#X connect 19 15 13 0;
#X connect 19 16 14 0;
#X connect 19 17 13 0;
#X connect 19 18 18 0;
#X connect 19 19 14 0;
#X connect 19 20 13 0;
#X connect 19 21 18 0;
#X connect 19 22 17 0;
#X connect 20 0 5 0;
#X connect 22 0 7 0;
#X connect 23 0 20 0;
#X restore 164 456 pd BGM;
#N canvas 743 -1156 567 536 collect_item_sound 1;
#X obj 108 236 osc~;
#X obj 109 350 *~;
#X obj 109 461 dac~;
#X floatatom 132 320 5 0 0 0 - - -;
#X text 166 319 debug;
#N canvas 198 572 450 300 envelopeGenerator 0;
#X obj 36 216 snapshot~;
#X floatatom 36 242 5 0 0 0 - - -;
#X text 79 243 debug;
#X obj 36 114 vline~;
#X obj 52 179 metro 1;
#X obj 16 79 inlet;
#X obj 16 268 outlet;
#X text 14 16 envelope generator args: vline message returns: control
signal, f 23;
#X obj 16 155 bng 15 250 50 0 empty empty empty 17 7 0 10 -262144 -1
-1;
#X connect 0 0 1 0;
#X connect 0 0 6 0;
#X connect 3 0 0 0;
#X connect 4 0 0 0;
#X connect 5 0 3 0;
#X connect 5 0 8 0;
#X connect 8 0 4 0;
#X restore 124 296 pd envelopeGenerator;
#X obj 283 108 bng 30 250 50 0 empty empty empty 17 7 0 10 -258049
-1 -1;
#X text 9 7 This is the sound played when you collect an item. This
sound is inspired by the sound played when a player collects a banana
in super monkey ball., f 50;
#X text 289 272 osc~ volume envelope;
#X text 318 115 play sound;
#X floatatom 68 203 5 0 0 0 - - -;
#X text 25 203 debug;
#N canvas 1445 -432 450 300 delayEffect 0;
#X text 123 21 delay unit source: https://guitarextended.wordpress.com/2011/12/12/creating-a-simple-effect-with-pd/
;
#X obj 42 202 outlet~;
#X obj 46 26 inlet~;
#X obj 147 116 *~ 0.45;
#X obj 70 76 delwrite~ delayEffectDelayLine 1000;
#X obj 71 153 delread~ delayEffectDelayLine 100;
#X connect 2 0 4 0;
#X connect 3 0 4 0;
#X connect 5 0 1 0;
#X connect 5 0 3 0;
#X restore 117 375 pd delayEffect;
#N canvas 998 61 450 410 pitchSequence 0;
#X floatatom 44 284 5 0 0 0 - - -;
#X obj 44 150 f;
#X obj 87 150 + 1;
#X obj 44 96 bng 15 250 50 0 empty empty empty 17 7 0 10 -262144 -1
-1;
#X msg 44 257 600;
#X msg 126 257 1800;
#X obj 24 314 outlet;
#X text 164 257 sequence of pitches;
#X obj 18 65 inlet;
#X msg 85 257 900;
#X obj 44 173 mod 3;
#X obj 44 231 select 0 1 2;
#X text 87 173 prevents the number from going out of bounds;
#X floatatom 44 196 5 0 0 0 - - -;
#X obj 44 127 metro 100;
#X connect 0 0 6 0;
#X connect 1 0 2 0;
#X connect 1 0 10 0;
#X connect 2 0 1 1;
#X connect 3 0 14 0;
#X connect 4 0 0 0;
#X connect 5 0 0 0;
#X connect 8 0 3 0;
#X connect 9 0 0 0;
#X connect 10 0 13 0;
#X connect 11 0 4 0;
#X connect 11 1 9 0;
#X connect 11 2 5 0;
#X connect 13 0 11 0;
#X connect 14 0 1 0;
#X restore 108 175 pd pitchSequence;
#X obj 283 78 inlet;
#X obj 109 435 *~;
#X text 160 418 global volume control;
#X msg 124 272 0 1 \, 1 1 1 \, 0 100 1000;
#X obj 124 399 loadbang;
#X msg 124 417 0.2;
#X connect 0 0 1 0;
#X connect 1 0 12 0;
#X connect 1 0 15 0;
#X connect 5 0 3 0;
#X connect 5 0 1 1;
#X connect 6 0 17 0;
#X connect 6 0 13 0;
#X connect 12 0 15 0;
#X connect 13 0 10 0;
#X connect 13 0 0 0;
#X connect 14 0 6 0;
#X connect 15 0 2 0;
#X connect 15 0 2 1;
#X connect 17 0 5 0;
#X connect 18 0 19 0;
#X connect 19 0 15 1;
#X restore 455 257 pd collect_item_sound;
#X obj 455 225 r osctrig;
#X text 451 198 Trigger when picking up rotating cube;
#X connect 6 0 10 0;
#X connect 8 0 9 0;
#X connect 10 0 13 0;
#X connect 11 0 10 0;
#X connect 14 0 15 0;
#X connect 14 0 15 1;
#X connect 16 0 31 0;
#X connect 17 0 16 0;
#X connect 18 0 21 0;
#X connect 18 0 47 0;
#X connect 19 0 18 0;
#X connect 20 0 18 1;
#X connect 21 0 22 0;
#X connect 21 0 27 0;
#X connect 22 0 21 1;
#X connect 23 0 28 0;
#X connect 23 1 44 0;
#X connect 23 2 45 0;
#X connect 23 3 46 0;
#X connect 24 0 14 1;
#X connect 25 0 17 1;
#X connect 26 0 48 0;
#X connect 27 0 23 0;
#X connect 28 0 17 0;
#X connect 29 0 52 0;
#X connect 30 0 34 0;
#X connect 31 0 30 0;
#X connect 31 0 33 0;
#X connect 32 0 34 1;
#X connect 33 0 32 0;
#X connect 34 0 35 0;
#X connect 35 0 14 0;
#X connect 36 0 30 1;
#X connect 37 0 32 1;
#X connect 38 0 36 0;
#X connect 38 0 37 0;
#X connect 39 0 38 0;
#X connect 40 0 20 0;
#X connect 41 0 42 0;
#X connect 42 0 20 0;
#X connect 43 0 29 0;
#X connect 44 0 17 0;
#X connect 45 0 17 0;
#X connect 46 0 17 0;
#X connect 47 0 24 0;
#X connect 48 0 25 0;
#X connect 55 0 54 0;
